<svg width="140" height="32" viewBox="0 0 140 32" fill="none" xmlns="http://www.w3.org/2000/svg">
<path d="M15.5341 0.930272C15.8774 0.586978 15.6343 0 15.1488 0H10.5248C10.3803 0 10.2417 0.0574133 10.1395 0.15961L0.15961 10.1395C-0.0532032 10.3523 -0.0532032 10.6974 0.15961 10.9102L14.8022 25.5528C15.015 25.7656 15.3601 25.7656 15.5729 25.5528L30.2155 10.9102C30.4283 10.6974 30.4283 10.3523 30.2155 10.1395L27.5181 7.44218C27.4962 7.42023 27.4583 7.42996 27.4461 7.45852C27.4196 7.52098 27.3808 7.57949 27.3299 7.63042L15.5729 19.3875C15.3601 19.6003 15.015 19.6003 14.8022 19.3875L6.32491 10.9102C6.1121 10.6974 6.1121 10.3523 6.32491 10.1395L11.1441 5.32033L11.146 5.31843L15.5341 0.930272Z" fill="#141414"/>
<path d="M32.7692 0.15961C32.667 0.0574133 32.5284 0 32.3838 0H23.0584C22.9139 0 22.7753 0.0574133 22.6731 0.15961L12.6932 10.1395C12.4804 10.3523 12.4804 10.6974 12.6932 10.9102L15.0023 13.2193C15.2151 13.4321 15.5602 13.4321 15.773 13.2193L23.0929 5.89941C23.0937 5.89862 23.095 5.89862 23.0957 5.89941C23.0965 5.9002 23.0978 5.9002 23.0986 5.89941L24.4789 4.51914C24.5811 4.41694 24.7197 4.35953 24.8642 4.35953H30.5781C30.7226 4.35953 30.8612 4.41694 30.9634 4.51914L36.5838 10.1395C36.7966 10.3523 36.7966 10.6974 36.5838 10.9102L28.8335 18.6604C28.8298 18.664 28.826 18.6676 28.8224 18.6713L18.8009 28.6927C18.5881 28.9055 18.5881 29.2505 18.8009 29.4634L21.1129 31.7753C21.3257 31.9882 21.6708 31.9882 21.8836 31.7753L28.0955 25.5634C28.0992 25.5599 28.1029 25.5564 28.1065 25.5528L42.7491 10.9102C42.9619 10.6974 42.9619 10.3523 42.7491 10.1395L32.7692 0.15961Z" fill="#141414"/>
<path d="M56.7165 2.59821V23.6868H52.4891V2.59821H56.7165Z" fill="#141414"/>
<path d="M73.1768 8.59198C74.404 9.85098 75.0179 11.6085 75.0185 13.8645V23.6877H70.7886V14.4416C70.7886 13.1123 70.4565 12.0901 69.7921 11.3752C69.1278 10.6603 68.2221 10.3028 67.0751 10.3028C65.9068 10.3028 64.9855 10.6603 64.3114 11.3752C63.6372 12.0901 63.3001 13.1123 63.3001 14.4416V23.6868H59.0728V6.94907H63.3001V9.03402C63.8738 8.30106 64.614 7.71565 65.4592 7.32644C66.3625 6.90781 67.3478 6.69637 68.3432 6.70758C70.3379 6.70867 71.949 7.3368 73.1768 8.59198Z" fill="#141414"/>
<path d="M77.7511 10.7555C78.4253 9.44575 79.3462 8.43862 80.514 7.73408C81.6895 7.0276 83.038 6.66173 84.4092 6.67727C85.4859 6.67524 86.5489 6.91792 87.5182 7.387C88.5043 7.86015 89.2895 8.48964 89.8736 9.27549V1.32941H94.1615V23.6868H89.8736V21.2089C89.35 22.0357 88.615 22.7004 87.6687 23.203C86.7224 23.7057 85.6255 23.9575 84.3781 23.9586C83.0124 23.971 81.6714 23.5936 80.5124 22.8707C79.3451 22.1454 78.4242 21.1233 77.7495 19.8042C77.0748 18.4852 76.7377 16.9694 76.7382 15.2569C76.7393 13.5657 77.0769 12.0653 77.7511 10.7555ZM89.3009 12.6743C88.9269 11.9683 88.3618 11.382 87.6703 10.9823C87.0011 10.5933 86.2402 10.3898 85.4662 10.3929C84.6892 10.3855 83.925 10.5914 83.2569 10.9883C82.5887 11.3853 82.0421 11.9579 81.6766 12.644C81.2642 13.3791 81.0581 14.2501 81.0581 15.2569C81.0581 16.2638 81.2642 17.1452 81.6766 17.901C82.0524 18.6174 82.6161 19.2179 83.3071 19.6381C83.9575 20.0345 84.7047 20.2436 85.4662 20.2422C86.2401 20.2451 87.0008 20.042 87.6703 19.6536C88.3618 19.2539 88.9269 18.6675 89.3009 17.9616C89.7034 17.2265 89.905 16.3451 89.9055 15.3175C89.9061 14.2899 89.7045 13.4089 89.3009 12.6743Z" fill="#141414"/>
<path d="M97.3785 4.24523C97.1442 4.01436 96.9582 3.73917 96.8312 3.43569C96.7042 3.1322 96.6388 2.80649 96.6388 2.47748C96.6388 2.14847 96.7042 1.82274 96.8312 1.51926C96.9582 1.21577 97.1442 0.940585 97.3785 0.709718C97.8694 0.237662 98.4885 0.00109522 99.2357 3.75943e-06C99.983 -0.0010877 100.602 0.235479 101.093 0.709718C101.327 0.940585 101.513 1.21577 101.64 1.51926C101.767 1.82274 101.833 2.14847 101.833 2.47748C101.833 2.80649 101.767 3.1322 101.64 3.43569C101.513 3.73917 101.327 4.01436 101.093 4.24523C100.599 4.71837 99.9797 4.95494 99.2357 4.95494C98.4917 4.95494 97.8727 4.71837 97.3785 4.24523ZM101.32 6.94659V23.6868H97.0914V6.94904L101.32 6.94659Z" fill="#141414"/>
<path d="M114.424 7.41726C115.37 7.90841 116.115 8.548 116.659 9.33604V6.94902H120.913V23.8071C120.913 25.3587 120.601 26.7434 119.977 27.9615C119.352 29.1796 118.416 30.1463 117.169 30.8618C115.92 31.5767 114.41 31.9344 112.639 31.9349C110.264 31.9349 108.316 31.381 106.796 30.2732C105.277 29.1654 104.416 27.6548 104.215 25.7415H108.412C108.63 26.5055 109.108 27.1145 109.846 27.5686C110.584 28.0226 111.475 28.2494 112.518 28.2488C113.746 28.2488 114.743 27.8813 115.508 27.1462C116.273 26.4111 116.655 25.2981 116.653 23.8071V21.2089C116.108 21.9948 115.358 22.6496 114.403 23.1735C113.449 23.6974 112.358 23.9594 111.131 23.9594C109.765 23.9717 108.425 23.5943 107.266 22.8715C106.099 22.1462 105.178 21.1241 104.503 19.805C103.828 18.486 103.491 16.9702 103.492 15.2577C103.492 13.566 103.829 12.0652 104.503 10.7555C105.177 9.44572 106.093 8.43859 107.251 7.73405C108.408 7.03006 109.701 6.67779 111.131 6.67725C112.38 6.67725 113.478 6.92392 114.424 7.41726ZM116.054 12.6743C115.68 11.9683 115.115 11.3819 114.424 10.9822C113.755 10.5932 112.994 10.3898 112.22 10.3928C111.443 10.3854 110.679 10.5914 110.01 10.9883C109.342 11.3852 108.796 11.9579 108.43 12.644C108.018 13.3791 107.812 14.25 107.812 15.2569C107.812 16.2638 108.018 17.1451 108.43 17.901C108.806 18.6174 109.37 19.2179 110.061 19.638C110.711 20.0345 111.458 20.2436 112.22 20.2422C112.994 20.2451 113.754 20.0419 114.424 19.6536C115.115 19.2539 115.68 18.6675 116.054 17.9616C116.457 17.2265 116.658 16.3451 116.659 15.3175C116.66 14.2899 116.458 13.4088 116.054 12.6743Z" fill="#141414"/>
<path d="M126.925 22.8862C125.647 22.1816 124.595 21.1285 123.891 19.8492C123.155 18.5395 122.787 17.0289 122.789 15.3175C122.79 13.6061 123.167 12.0955 123.921 10.7858C124.648 9.50366 125.72 8.45165 127.016 7.7496C128.325 7.0347 129.784 6.67725 131.394 6.67725C133.003 6.67725 134.463 7.0347 135.773 7.7496C137.068 8.45212 138.14 9.50401 138.868 10.7858C139.623 12.0955 140 13.6061 140 15.3175C140 17.0289 139.612 18.5395 138.837 19.8492C138.091 21.1318 137.004 22.1829 135.697 22.8862C134.378 23.6011 132.904 23.9586 131.274 23.9586C129.663 23.9586 128.213 23.6011 126.925 22.8862ZM133.433 19.7134C134.107 19.3406 134.645 18.7818 135.048 18.0369C135.45 17.2919 135.652 16.3855 135.652 15.3175C135.652 13.7272 135.234 12.5037 134.399 11.6469C134.005 11.2318 133.529 10.9031 133.001 10.682C132.473 10.4609 131.905 10.3521 131.333 10.3625C130.126 10.3625 129.114 10.7907 128.299 11.6469C127.483 12.5032 127.076 13.7267 127.077 15.3175C127.077 16.9088 127.475 18.1326 128.27 18.9889C129.065 19.8451 130.067 20.273 131.275 20.2724C132.03 20.2746 132.773 20.0821 133.433 19.7134Z" fill="#141414"/>
</svg>
